<?xml version="1.0" encoding="UTF-8"?>
<svg xmlns="http://www.w3.org/2000/svg" xmlns:xlink="http://www.w3.org/1999/xlink" width="84.088pt" height="138.691pt" viewBox="0 0 84.088 138.691" version="1.1">
<g id="surface1">
<path style="fill:none;stroke-width:1;stroke-linecap:butt;stroke-linejoin:miter;stroke:rgb(0%,0%,0%);stroke-opacity:1;stroke-miterlimit:10;" d="M 12.453313 0.00065625 C 12.453313 6.879563 6.879094 12.453781 0.0001875 12.453781 C -6.878719 12.453781 -12.452937 6.879563 -12.452937 0.00065625 C -12.452937 -6.87825 -6.878719 -12.452469 0.0001875 -12.452469 C 6.879094 -12.452469 12.453313 -6.87825 12.453313 0.00065625 Z M 12.453313 0.00065625 " transform="matrix(1,0,0,-1,14.742,12.653)"/>
<path style="fill:none;stroke-width:1;stroke-linecap:butt;stroke-linejoin:miter;stroke:rgb(0%,0%,0%);stroke-opacity:1;stroke-miterlimit:10;" d="M 12.453313 -56.694656 C 12.453313 -49.81575 6.879094 -44.241531 0.0001875 -44.241531 C -6.878719 -44.241531 -12.452937 -49.81575 -12.452937 -56.694656 C -12.452937 -63.569656 -6.878719 -69.147781 0.0001875 -69.147781 C 6.879094 -69.147781 12.453313 -63.569656 12.453313 -56.694656 Z M 12.453313 -56.694656 " transform="matrix(1,0,0,-1,14.742,12.653)"/>
<path style="fill:none;stroke-width:1;stroke-linecap:butt;stroke-linejoin:miter;stroke:rgb(0%,0%,0%);stroke-opacity:1;stroke-miterlimit:10;" d="M 12.453313 -113.386062 C 12.453313 -106.511062 6.879094 -100.932937 0.0001875 -100.932937 C -6.878719 -100.932937 -12.452937 -106.511062 -12.452937 -113.386062 C -12.452937 -120.264969 -6.878719 -125.839187 0.0001875 -125.839187 C 6.879094 -125.839187 12.453313 -120.264969 12.453313 -113.386062 Z M 12.453313 -113.386062 " transform="matrix(1,0,0,-1,14.742,12.653)"/>
<path style="fill:none;stroke-width:1;stroke-linecap:butt;stroke-linejoin:miter;stroke:rgb(0%,0%,0%);stroke-opacity:1;stroke-miterlimit:10;" d="M 69.148625 -56.694656 C 69.148625 -49.81575 63.5705 -44.241531 56.6955 -44.241531 C 49.816594 -44.241531 44.238469 -49.81575 44.238469 -56.694656 C 44.238469 -63.569656 49.816594 -69.147781 56.6955 -69.147781 C 63.5705 -69.147781 69.148625 -63.569656 69.148625 -56.694656 Z M 69.148625 -56.694656 " transform="matrix(1,0,0,-1,14.742,12.653)"/>
<path style="fill:none;stroke-width:1;stroke-linecap:butt;stroke-linejoin:miter;stroke:rgb(0%,0%,0%);stroke-opacity:1;stroke-miterlimit:10;" d="M 6.347844 -10.991531 C 13.113469 -22.714187 13.113469 -33.979812 6.347844 -45.702469 " transform="matrix(1,0,0,-1,14.742,12.653)"/>
<path style="fill:none;stroke-width:1;stroke-linecap:butt;stroke-linejoin:miter;stroke:rgb(0%,0%,0%);stroke-opacity:1;stroke-miterlimit:10;" d="M -6.347469 -10.991531 C -13.113094 -22.714187 -13.113094 -33.979812 -6.347469 -45.702469 " transform="matrix(1,0,0,-1,14.742,12.653)"/>
<path style="fill:none;stroke-width:1;stroke-linecap:butt;stroke-linejoin:miter;stroke:rgb(0%,0%,0%);stroke-opacity:1;stroke-miterlimit:10;" d="M 12.246281 -3.280594 C 34.261906 -9.179031 47.511906 -22.429031 53.41425 -44.448562 " transform="matrix(1,0,0,-1,14.742,12.653)"/>
<path style="fill:none;stroke-width:1;stroke-linecap:butt;stroke-linejoin:miter;stroke:rgb(0%,0%,0%);stroke-opacity:1;stroke-miterlimit:10;" d="M 6.347844 -67.686844 C 13.113469 -79.4095 13.113469 -90.671219 6.347844 -102.393875 " transform="matrix(1,0,0,-1,14.742,12.653)"/>
<path style="fill:none;stroke-width:1;stroke-linecap:butt;stroke-linejoin:miter;stroke:rgb(0%,0%,0%);stroke-opacity:1;stroke-miterlimit:10;" d="M -6.347469 -67.686844 C -13.113094 -79.4095 -13.113094 -90.671219 -6.347469 -102.393875 " transform="matrix(1,0,0,-1,14.742,12.653)"/>
<path style="fill:none;stroke-width:1;stroke-linecap:butt;stroke-linejoin:miter;stroke:rgb(0%,0%,0%);stroke-opacity:1;stroke-miterlimit:10;" d="M 12.758 -56.847 L 43.758 -56.847 " transform="matrix(1,0,0,-1,14.742,12.653)"/>
<path style="fill:none;stroke-width:1;stroke-linecap:butt;stroke-linejoin:miter;stroke:rgb(0%,0%,0%);stroke-opacity:1;stroke-miterlimit:10;" d="M 12.246281 -110.104812 C 34.261906 -104.206375 47.511906 -90.956375 53.41425 -68.94075 " transform="matrix(1,0,0,-1,14.742,12.653)"/>
</g>
</svg>
