<?xml version="1.0" encoding="UTF-8"?>
<svg xmlns="http://www.w3.org/2000/svg" xmlns:xlink="http://www.w3.org/1999/xlink" width="612pt" height="792pt" viewBox="0 0 612 792" version="1.1">
<g id="surface1">
<path style="fill:none;stroke-width:1;stroke-linecap:butt;stroke-linejoin:miter;stroke:rgb(0%,0%,0%);stroke-opacity:1;stroke-miterlimit:10;" d="M 12.45225 0.001875 C 12.45225 6.876875 6.878031 12.455 -0.000875 12.455 C -6.879781 12.455 -12.454 6.876875 -12.454 0.001875 C -12.454 -6.877031 -6.879781 -12.455156 -0.000875 -12.455156 C 6.878031 -12.455156 12.45225 -6.877031 12.45225 0.001875 Z M 12.45225 0.001875 " transform="matrix(1,0,0,-1,163.454,137.455)"/>
<path style="fill:none;stroke-width:1;stroke-linecap:butt;stroke-linejoin:miter;stroke:rgb(0%,0%,0%);stroke-opacity:1;stroke-miterlimit:10;" d="M 12.45225 -56.693437 C 12.45225 -49.814531 6.878031 -44.240312 -0.000875 -44.240312 C -6.879781 -44.240312 -12.454 -49.814531 -12.454 -56.693437 C -12.454 -63.572344 -6.879781 -69.146562 -0.000875 -69.146562 C 6.878031 -69.146562 12.45225 -63.572344 12.45225 -56.693437 Z M 12.45225 -56.693437 " transform="matrix(1,0,0,-1,163.454,137.455)"/>
<path style="fill:none;stroke-width:1;stroke-linecap:butt;stroke-linejoin:miter;stroke:rgb(0%,0%,0%);stroke-opacity:1;stroke-miterlimit:10;" d="M 12.45225 -113.38875 C 12.45225 -106.509844 6.878031 -100.935625 -0.000875 -100.935625 C -6.879781 -100.935625 -12.454 -106.509844 -12.454 -113.38875 C -12.454 -120.26375 -6.879781 -125.841875 -0.000875 -125.841875 C 6.878031 -125.841875 12.45225 -120.26375 12.45225 -113.38875 Z M 12.45225 -113.38875 " transform="matrix(1,0,0,-1,163.454,137.455)"/>
<path style="fill:none;stroke-width:1;stroke-linecap:butt;stroke-linejoin:miter;stroke:rgb(0%,0%,0%);stroke-opacity:1;stroke-miterlimit:10;" d="M 69.147562 -56.693437 C 69.147562 -49.814531 63.573344 -44.240312 56.694437 -44.240312 C 49.815531 -44.240312 44.241312 -49.814531 44.241312 -56.693437 C 44.241312 -63.572344 49.815531 -69.146562 56.694437 -69.146562 C 63.573344 -69.146562 69.147562 -63.572344 69.147562 -56.693437 Z M 69.147562 -56.693437 " transform="matrix(1,0,0,-1,163.454,137.455)"/>
<path style="fill:none;stroke-width:1;stroke-linecap:butt;stroke-linejoin:miter;stroke:rgb(0%,0%,0%);stroke-opacity:1;stroke-miterlimit:10;" d="M 6.346781 -10.994219 C 13.112406 -22.712969 13.112406 -33.978594 6.346781 -45.70125 " transform="matrix(1,0,0,-1,163.454,137.455)"/>
<path style="fill:none;stroke-width:1;stroke-linecap:butt;stroke-linejoin:miter;stroke:rgb(0%,0%,0%);stroke-opacity:1;stroke-miterlimit:10;" d="M -6.344625 -10.994219 C -13.114156 -22.712969 -13.114156 -33.978594 -6.344625 -45.70125 " transform="matrix(1,0,0,-1,163.454,137.455)"/>
<path style="fill:none;stroke-width:1;stroke-linecap:butt;stroke-linejoin:miter;stroke:rgb(0%,0%,0%);stroke-opacity:1;stroke-miterlimit:10;" d="M 12.245219 -3.279375 C 34.26475 -9.181719 47.51475 -22.431719 53.413187 -44.447344 " transform="matrix(1,0,0,-1,163.454,137.455)"/>
<path style="fill:none;stroke-width:1;stroke-linecap:butt;stroke-linejoin:miter;stroke:rgb(0%,0%,0%);stroke-opacity:1;stroke-miterlimit:10;" d="M 6.346781 -67.685625 C 13.112406 -79.408281 13.112406 -90.673906 6.346781 -102.396562 " transform="matrix(1,0,0,-1,163.454,137.455)"/>
<path style="fill:none;stroke-width:1;stroke-linecap:butt;stroke-linejoin:miter;stroke:rgb(0%,0%,0%);stroke-opacity:1;stroke-miterlimit:10;" d="M -6.344625 -67.685625 C -13.114156 -79.408281 -13.114156 -90.673906 -6.344625 -102.396562 " transform="matrix(1,0,0,-1,163.454,137.455)"/>
<path style="fill:none;stroke-width:1;stroke-linecap:butt;stroke-linejoin:miter;stroke:rgb(0%,0%,0%);stroke-opacity:1;stroke-miterlimit:10;" d="M 13.046 -57.045 L 44.046 -57.045 " transform="matrix(1,0,0,-1,163.454,137.455)"/>
<path style="fill:none;stroke-width:1;stroke-linecap:butt;stroke-linejoin:miter;stroke:rgb(0%,0%,0%);stroke-opacity:1;stroke-miterlimit:10;" d="M 12.245219 -110.1075 C 34.26475 -104.205156 47.51475 -90.959062 53.413187 -68.939531 " transform="matrix(1,0,0,-1,163.454,137.455)"/>
</g>
</svg>
